<?xml version="1.0" encoding="UTF-8"?>
<!DOCTYPE svg PUBLIC "-//W3C//DTD SVG 1.1//EN" "http://www.w3.org/Graphics/SVG/1.1/DTD/svg11.dtd">
<svg version="1.1" xmlns="http://www.w3.org/2000/svg" xmlns:xlink="http://www.w3.org/1999/xlink" x="0px" y="0px" width="200" height="50" viewBox="0, 0, 200, 50">
  <g id="Layer 1">
    <g>
      <path d="M20.128,13.936 C20.128,9.664 24.784,7.504 28.144,7.504 C30.064,7.504 31.6,8.224 31.6,9.664 C31.6,12.16 30.784,13.84 30.784,15.232 C30.784,16.576 31.6,17.68 34.72,18.88 C34.72,20.224 36.64,20.416 36.64,20.416 C36.544,19.84 36.544,19.264 36.544,18.64 C36.544,15.952 37.168,12.976 37.168,10.336 C37.168,5.584 33.472,3.568 29.248,3.568 C23.68,3.568 17.248,7.072 17.248,12.64 C17.248,21.232 30.64,30.496 30.64,34.192 C30.64,37.552 27.856,39.376 24.544,39.376 C18.736,39.376 11.008,37.024 5.872,32.176 L5.056,31.408 C4.72,31.408 4.24,31.36 4.24,31.36 C3.328,30.112 2.848,29.776 2.56,29.776 C2.224,29.776 2.176,30.304 2.128,30.304 C2.032,30.304 10.912,45.712 25.504,45.712 C29.584,45.712 34.864,43.504 34.864,37.456 C34.864,27.904 20.128,20.896 20.128,13.936 z" fill="#FAFAFA"/>
      <path d="M54.592,30.304 C55.936,30.304 56.992,30.112 57.76,29.728 C57.328,31.312 56.56,35.104 56.56,38.56 C56.56,43.264 58.48,45.232 60.544,45.232 C62.848,45.232 65.344,42.736 65.536,38.752 C65.536,38.752 65.584,38.608 65.584,38.512 C65.584,38.416 65.536,38.32 65.44,38.32 C65.392,38.32 65.296,38.368 65.152,38.464 C64.528,38.896 64.576,39.088 64.48,39.424 C63.712,41.872 62.8,42.976 61.984,42.976 C60.736,42.976 59.68,40.48 59.68,36.544 C59.68,34.384 60.112,31.744 61.216,29.104 C61.552,28.288 62.416,26.032 62.416,26.032 C62.416,26.032 62.56,25.744 62.56,25.408 C62.56,24.736 61.6,23.488 60.976,23.488 C60.592,23.488 58.048,26.176 56.368,27.28 C55.888,27.568 55.552,27.76 55.312,27.76 C54.976,27.76 54.88,27.424 54.88,26.608 C54.88,25.696 55.12,24.496 55.12,23.488 C55.12,22.288 54.784,21.28 53.344,21.28 C51.856,21.28 51.088,23.056 51.088,25.024 C51.088,26.944 51.808,28.96 53.248,29.872 C53.056,31.744 52.72,33.712 52.144,35.44 C50.944,39.04 47.776,41.392 45.04,41.392 C41.728,41.392 40.432,38.464 40.432,35.152 C40.432,30.736 42.736,25.648 45.616,25.648 C45.856,25.648 46,25.888 46,26.272 C46,27.328 45.136,29.344 44.704,29.392 C44.608,29.392 44.56,29.44 44.56,29.536 C44.56,29.776 44.944,30.16 45.952,30.16 C48.16,30.16 49.12,28.384 49.12,26.512 C49.12,24.304 47.824,21.952 45.664,21.952 C40.048,21.952 37.216,28.24 37.216,34.096 C37.216,39.184 39.328,43.888 43.6,43.888 C48.304,43.888 54.016,38.416 54.592,30.304 z" fill="#FAFAFA"/>
      <path d="M65.824,24.928 C65.344,27.04 64.48,31.744 64.48,35.92 C64.48,39.952 65.296,43.456 67.984,43.456 C70.288,43.456 72.304,40.96 72.832,38.224 L72.832,38.128 C72.832,37.936 72.736,37.84 72.592,37.84 C72.448,37.84 72.256,37.984 72.16,38.128 C71.632,39.376 70.096,41.104 69.04,41.104 C68.416,41.104 67.984,40.528 67.984,38.896 C67.984,34.096 68.656,31.312 69.904,24.352 C69.904,24.352 69.904,23.968 69.328,23.968 C68.032,24.256 67.216,24.304 66.4,24.304 C66.016,24.304 65.824,24.928 65.824,24.928 z M70.24,11.344 C68.32,11.344 67.072,13.456 67.072,15.232 C67.072,16.528 67.744,17.68 69.28,17.68 C70.96,17.68 72.352,15.376 72.352,13.552 C72.352,12.352 71.776,11.344 70.24,11.344 z" fill="#FAFAFA"/>
      <path d="M75.76,37.072 C75.76,31.6 78.448,26.272 80.56,26.272 C82.432,26.272 83.344,29.344 83.344,32.752 C83.344,38.848 80.656,41.824 78.448,41.824 C76.96,41.824 75.712,40.48 75.712,37.84 C75.712,37.6 75.76,37.36 75.76,37.072 z M74.08,3.76 C74.08,13.84 73.888,26.512 73.168,35.248 C73.168,35.536 73.12,35.824 73.12,36.112 C73.12,41.104 75.472,43.408 78.208,43.408 C82.096,43.408 86.848,38.8 86.848,30.736 C86.848,26.224 85.36,22.192 82.144,22.192 C80.176,22.192 78.016,24.64 76.576,28.384 C77.008,20.656 77.44,11.776 77.776,6.736 C77.776,4.864 75.952,4.576 74.704,3.328 C74.608,3.28 74.464,3.232 74.368,3.232 C74.224,3.232 74.08,3.28 74.08,3.424 z" fill="#FAFAFA"/>
      <path d="M95.536,41.344 C93.952,41.344 92.512,39.808 92.224,35.824 C97.264,32.944 99.472,28.912 99.472,25.936 C99.472,23.728 98.272,22.144 96.112,22.144 C91.456,22.144 88.432,28.528 88.432,34.336 C88.432,39.136 90.496,43.504 95.44,43.504 C98.992,43.504 101.632,40.144 101.632,36.736 C101.632,35.056 101.248,33.088 99.472,33.088 C98.896,33.088 98.896,33.328 98.896,33.376 C99.184,34.288 99.328,35.152 99.328,35.968 C99.328,39.088 97.408,41.344 95.536,41.344 z M96.688,25.84 C96.688,28.192 94.096,32.512 92.176,33.808 C92.272,29.536 93.856,24.928 95.968,24.928 C96.496,24.928 96.688,25.408 96.688,25.84 z" fill="#FAFAFA"/>
      <path d="M108.16,35.008 C108.544,32.896 108.928,30.4 108.928,28.24 C108.928,25.504 108.304,23.392 106.384,23.392 C103.84,23.392 101.968,25.6 100.624,28.144 C100.624,28.768 101.152,28.912 101.536,28.912 C101.728,28.912 101.872,28.864 101.872,28.864 C102.976,26.8 104.224,25.456 104.992,25.456 C105.568,25.456 105.808,26.56 105.808,28.192 C105.808,32.368 104.416,39.952 104.272,41.008 C104.32,42.208 105.568,43.024 106.672,43.024 C107.488,43.024 108.16,42.592 108.16,41.536 C109.168,33.184 111.136,27.184 112.336,27.184 C112.624,27.184 112.768,29.056 112.768,31.504 C112.768,35.248 112.48,40.336 112.288,42.064 L112.288,42.112 C112.288,42.784 113.68,42.784 114.88,42.784 C115.264,42.784 115.6,42.64 115.6,42.304 C116.656,39.136 118.288,31.696 119.68,29.392 C119.68,30.064 119.584,31.408 119.584,32.992 C119.584,36.928 120.112,42.256 123.904,42.256 C125.824,42.256 127.84,40.336 127.84,38.368 C127.84,38.272 127.792,38.224 127.696,38.224 C127.6,38.224 127.504,38.272 127.504,38.272 C126.688,39.136 125.968,39.52 125.344,39.52 C123.904,39.52 123.04,36.544 123.04,33.76 C123.04,30.88 123.52,26.608 124.72,23.92 C124.768,23.824 124.768,23.776 124.768,23.68 C124.768,23.104 123.088,22 122.56,22 C122.416,22 122.32,22.048 122.176,22.144 C119.392,24.784 117.136,33.04 115.6,36.4 C115.936,34.672 115.984,31.984 115.984,26.608 C115.984,24.64 115.408,23.536 113.344,23.536 C111.616,23.536 109.744,28.48 108.16,35.008 z" fill="#FAFAFA"/>
      <path d="M151.744,34.72 C151.792,33.472 151.792,31.312 151.792,29.056 C151.792,27.184 151.792,25.216 151.696,23.632 C151.648,23.008 151.216,22.768 150.64,22.768 C149.92,22.768 149.008,23.104 148.384,23.488 C146.752,24.4 145.552,41.056 142.048,41.056 C140.848,41.056 140.512,39.136 140.512,36.688 C140.512,33.28 141.184,28.912 141.184,27.52 C141.184,26.944 139.984,26.56 139.12,26.32 C138.784,24.112 137.536,22.48 134.992,22.48 C130.432,22.48 127.456,29.824 127.456,35.824 C127.456,39.952 128.896,43.456 132.208,43.456 C134.08,43.456 135.904,40.864 137.2,37.504 C137.68,41.824 139.504,43.456 141.376,43.456 C146.272,43.456 147.232,26.848 148.576,26.848 C148.624,26.848 148.672,27.136 148.672,27.616 C148.672,29.68 148.192,35.248 148.192,35.536 C147.952,38.608 147.808,41.248 147.616,42.208 C147.568,42.352 147.568,42.544 147.568,42.64 C147.568,43.168 148.288,42.88 148.48,43.36 C148.576,43.648 149.296,43.936 149.824,43.936 C150.208,43.936 150.544,43.792 150.544,43.456 C151.6,40.288 152.752,33.712 155.056,31.216 C154.912,32.032 154.72,34 154.72,36.208 C154.72,40.864 155.584,46.768 159.568,46.768 C161.824,46.768 163.888,45.52 163.888,42.928 C163.888,42.832 163.84,42.784 163.744,42.784 C163.648,42.784 163.552,42.832 163.552,42.832 C162.4,43.936 161.488,44.416 160.72,44.416 C158.608,44.416 157.792,40.816 157.792,36.688 C157.792,31.984 158.848,26.608 160.384,24.88 C160.432,24.832 160.48,24.736 160.48,24.688 C160.48,24.448 160.192,24.208 160.048,24.064 C159.52,23.536 158.608,22.96 158.224,22.96 C158.08,22.96 157.984,23.008 157.84,23.104 C155.056,25.744 153.28,31.36 151.744,34.72 z M131.68,41.104 C130.72,41.104 130.24,39.712 130.24,37.744 C130.24,33.952 132.208,26.224 135.184,26.224 C135.904,26.224 136.672,26.704 137.488,27.76 C137.056,31.552 135.616,41.104 131.68,41.104 z" fill="#FAFAFA"/>
      <path d="M163.504,24.928 C163.024,27.04 162.16,31.744 162.16,35.92 C162.16,39.952 162.976,43.456 165.664,43.456 C167.968,43.456 169.984,40.96 170.512,38.224 L170.512,38.128 C170.512,37.936 170.416,37.84 170.272,37.84 C170.128,37.84 169.936,37.984 169.84,38.128 C169.312,39.376 167.776,41.104 166.72,41.104 C166.096,41.104 165.664,40.528 165.664,38.896 C165.664,34.096 166.336,31.312 167.584,24.352 C167.584,24.352 167.584,23.968 167.008,23.968 C165.712,24.256 164.896,24.304 164.08,24.304 C163.696,24.304 163.504,24.928 163.504,24.928 z M167.92,11.344 C166,11.344 164.752,13.456 164.752,15.232 C164.752,16.528 165.424,17.68 166.96,17.68 C168.64,17.68 170.032,15.376 170.032,13.552 C170.032,12.352 169.456,11.344 167.92,11.344 z" fill="#FAFAFA"/>
      <path d="M178.096,22.48 C173.536,22.48 170.56,29.824 170.56,35.824 C170.56,39.952 172,43.456 175.312,43.456 C178.096,43.456 180.352,37.792 181.504,32.992 C182.464,40.768 186.16,44.752 189.952,44.752 C192.88,44.752 195.808,42.352 197.488,37.504 L197.104,36.592 C197.632,35.488 197.872,34.912 197.872,34.624 C197.872,34.48 197.824,34.432 197.728,34.432 C197.392,34.432 196.48,35.344 196.048,35.776 C193.12,38.704 190.912,39.856 189.184,39.856 C184.96,39.856 183.904,32.8 183.904,26.608 C183.904,26.224 183.616,26.128 183.184,26.128 C182.896,26.128 182.512,26.176 182.176,26.272 C181.84,24.064 180.592,22.48 178.096,22.48 z M174.784,41.104 C173.824,41.104 173.344,39.712 173.344,37.744 C173.344,33.952 175.312,26.224 178.288,26.224 C179.008,26.224 179.776,26.704 180.592,27.76 C180.16,31.552 178.72,41.104 174.784,41.104 z" fill="#FAFAFA"/>
    </g>
  </g>
  <defs/>
</svg>
