<?xml version="1.0" encoding="UTF-8"?>
<!DOCTYPE svg PUBLIC "-//W3C//DTD SVG 1.1//EN" "http://www.w3.org/Graphics/SVG/1.1/DTD/svg11.dtd">
<svg version="1.1" xmlns="http://www.w3.org/2000/svg" xmlns:xlink="http://www.w3.org/1999/xlink" x="0" y="0" width="45" height="45" viewBox="0, 0, 45, 45">
  <g id="Layer_1">
    <path d="M22.917,42.438 C12.136,42.438 3.396,33.697 3.396,22.917 C3.396,12.136 12.136,3.396 22.917,3.396 C33.697,3.396 42.438,12.136 42.438,22.917 C42.438,33.697 33.697,42.438 22.917,42.438 z" fill-opacity="0" stroke="#FAFAFA" stroke-width="2.5"/>
    <path d="M20.626,15.68 C20.626,12.958 23.592,11.582 25.733,11.582 C26.957,11.582 27.935,12.041 27.935,12.958 C27.935,14.548 27.415,15.619 27.415,16.506 C27.415,17.362 27.935,18.066 29.922,18.83 C29.922,19.687 31.146,19.809 31.146,19.809 C31.085,19.442 31.085,19.075 31.085,18.677 C31.085,16.965 31.483,15.068 31.483,13.387 C31.483,10.359 29.127,9.074 26.437,9.074 C22.889,9.074 18.791,11.307 18.791,14.854 C18.791,20.328 27.323,26.231 27.323,28.586 C27.323,30.727 25.55,31.888 23.439,31.888 C19.739,31.888 14.815,30.39 11.543,27.302 L11.023,26.812 C10.809,26.812 10.503,26.782 10.503,26.782 C9.922,25.987 9.617,25.772 9.432,25.772 C9.219,25.772 9.188,26.108 9.157,26.108 C9.097,26.108 14.754,35.926 24.051,35.926 C26.651,35.926 30.014,34.518 30.014,30.665 C30.014,24.579 20.626,20.115 20.626,15.68 z" fill="#FAFAFA"/>
  </g>
</svg>
