<?xml version="1.0" encoding="UTF-8"?>
<!DOCTYPE svg PUBLIC "-//W3C//DTD SVG 1.1//EN" "http://www.w3.org/Graphics/SVG/1.1/DTD/svg11.dtd">
<svg version="1.1" xmlns="http://www.w3.org/2000/svg" xmlns:xlink="http://www.w3.org/1999/xlink" x="0" y="0" width="160" height="40" viewBox="0, 0, 160, 40">
  <g id="Layer_1">
    <path d="M16.102,11.149 C16.102,7.731 19.827,6.003 22.515,6.003 C24.051,6.003 25.28,6.579 25.28,7.731 C25.28,9.728 24.627,11.072 24.627,12.186 C24.627,13.261 25.28,14.144 27.776,15.104 C27.776,16.179 29.312,16.333 29.312,16.333 C29.235,15.872 29.235,15.411 29.235,14.912 C29.235,12.762 29.734,10.381 29.734,8.269 C29.734,4.467 26.778,2.854 23.398,2.854 C18.944,2.854 13.798,5.658 13.798,10.112 C13.798,16.986 24.512,24.397 24.512,27.354 C24.512,30.042 22.285,31.501 19.635,31.501 C14.989,31.501 8.806,29.619 4.698,25.741 L4.045,25.126 C3.776,25.126 3.392,25.088 3.392,25.088 C2.662,24.09 2.278,23.821 2.048,23.821 C1.779,23.821 1.741,24.243 1.702,24.243 C1.626,24.243 8.73,36.57 20.403,36.57 C23.667,36.57 27.891,34.803 27.891,29.965 C27.891,22.323 16.102,16.717 16.102,11.149 z" fill="#FAFAFA"/>
    <path d="M43.674,24.243 C44.749,24.243 45.594,24.09 46.208,23.782 C45.862,25.05 45.248,28.083 45.248,30.848 C45.248,34.611 46.784,36.186 48.435,36.186 C50.278,36.186 52.275,34.189 52.429,31.002 C52.429,31.002 52.467,30.886 52.467,30.81 C52.467,30.733 52.429,30.656 52.352,30.656 C52.314,30.656 52.237,30.694 52.122,30.771 C51.622,31.117 51.661,31.27 51.584,31.539 C50.97,33.498 50.24,34.381 49.587,34.381 C48.589,34.381 47.744,32.384 47.744,29.235 C47.744,27.507 48.09,25.395 48.973,23.283 C49.242,22.63 49.933,20.826 49.933,20.826 C49.933,20.826 50.048,20.595 50.048,20.326 C50.048,19.789 49.28,18.79 48.781,18.79 C48.474,18.79 46.438,20.941 45.094,21.824 C44.71,22.054 44.442,22.208 44.25,22.208 C43.981,22.208 43.904,21.939 43.904,21.286 C43.904,20.557 44.096,19.597 44.096,18.79 C44.096,17.83 43.827,17.024 42.675,17.024 C41.485,17.024 40.87,18.445 40.87,20.019 C40.87,21.555 41.446,23.168 42.598,23.898 C42.445,25.395 42.176,26.97 41.715,28.352 C40.755,31.232 38.221,33.114 36.032,33.114 C33.382,33.114 32.346,30.771 32.346,28.122 C32.346,24.589 34.189,20.518 36.493,20.518 C36.685,20.518 36.8,20.71 36.8,21.018 C36.8,21.862 36.109,23.475 35.763,23.514 C35.686,23.514 35.648,23.552 35.648,23.629 C35.648,23.821 35.955,24.128 36.762,24.128 C38.528,24.128 39.296,22.707 39.296,21.21 C39.296,19.443 38.259,17.562 36.531,17.562 C32.038,17.562 29.773,22.592 29.773,27.277 C29.773,31.347 31.462,35.11 34.88,35.11 C38.643,35.11 43.213,30.733 43.674,24.243 z" fill="#FAFAFA"/>
    <path d="M52.659,19.942 C52.275,21.632 51.584,25.395 51.584,28.736 C51.584,31.962 52.237,34.765 54.387,34.765 C56.23,34.765 57.843,32.768 58.266,30.579 L58.266,30.502 C58.266,30.349 58.189,30.272 58.074,30.272 C57.958,30.272 57.805,30.387 57.728,30.502 C57.306,31.501 56.077,32.883 55.232,32.883 C54.733,32.883 54.387,32.422 54.387,31.117 C54.387,27.277 54.925,25.05 55.923,19.482 C55.923,19.482 55.923,19.174 55.462,19.174 C54.426,19.405 53.773,19.443 53.12,19.443 C52.813,19.443 52.659,19.942 52.659,19.942 z M56.192,9.075 C54.656,9.075 53.658,10.765 53.658,12.186 C53.658,13.222 54.195,14.144 55.424,14.144 C56.768,14.144 57.882,12.301 57.882,10.842 C57.882,9.882 57.421,9.075 56.192,9.075 z" fill="#FAFAFA"/>
    <path d="M60.608,29.658 C60.608,25.28 62.758,21.018 64.448,21.018 C65.946,21.018 66.675,23.475 66.675,26.202 C66.675,31.078 64.525,33.459 62.758,33.459 C61.568,33.459 60.57,32.384 60.57,30.272 C60.57,30.08 60.608,29.888 60.608,29.658 z M59.264,3.008 C59.264,11.072 59.11,21.21 58.534,28.198 C58.534,28.429 58.496,28.659 58.496,28.89 C58.496,32.883 60.378,34.726 62.566,34.726 C65.677,34.726 69.478,31.04 69.478,24.589 C69.478,20.979 68.288,17.754 65.715,17.754 C64.141,17.754 62.413,19.712 61.261,22.707 C61.606,16.525 61.952,9.421 62.221,5.389 C62.221,3.891 60.762,3.661 59.763,2.662 C59.686,2.624 59.571,2.586 59.494,2.586 C59.379,2.586 59.264,2.624 59.264,2.739 z" fill="#FAFAFA"/>
    <path d="M76.429,33.075 C75.162,33.075 74.01,31.846 73.779,28.659 C77.811,26.355 79.578,23.13 79.578,20.749 C79.578,18.982 78.618,17.715 76.89,17.715 C73.165,17.715 70.746,22.822 70.746,27.469 C70.746,31.309 72.397,34.803 76.352,34.803 C79.194,34.803 81.306,32.115 81.306,29.389 C81.306,28.045 80.998,26.47 79.578,26.47 C79.117,26.47 79.117,26.662 79.117,26.701 C79.347,27.43 79.462,28.122 79.462,28.774 C79.462,31.27 77.926,33.075 76.429,33.075 z M77.35,20.672 C77.35,22.554 75.277,26.01 73.741,27.046 C73.818,23.629 75.085,19.942 76.774,19.942 C77.197,19.942 77.35,20.326 77.35,20.672 z" fill="#FAFAFA"/>
    <path d="M86.528,28.006 C86.835,26.317 87.142,24.32 87.142,22.592 C87.142,20.403 86.643,18.714 85.107,18.714 C83.072,18.714 81.574,20.48 80.499,22.515 C80.499,23.014 80.922,23.13 81.229,23.13 C81.382,23.13 81.498,23.091 81.498,23.091 C82.381,21.44 83.379,20.365 83.994,20.365 C84.454,20.365 84.646,21.248 84.646,22.554 C84.646,25.894 83.533,31.962 83.418,32.806 C83.456,33.766 84.454,34.419 85.338,34.419 C85.99,34.419 86.528,34.074 86.528,33.229 C87.334,26.547 88.909,21.747 89.869,21.747 C90.099,21.747 90.214,23.245 90.214,25.203 C90.214,28.198 89.984,32.269 89.83,33.651 L89.83,33.69 C89.83,34.227 90.944,34.227 91.904,34.227 C92.211,34.227 92.48,34.112 92.48,33.843 C93.325,31.309 94.63,25.357 95.744,23.514 C95.744,24.051 95.667,25.126 95.667,26.394 C95.667,29.542 96.09,33.805 99.123,33.805 C100.659,33.805 102.272,32.269 102.272,30.694 C102.272,30.618 102.234,30.579 102.157,30.579 C102.08,30.579 102.003,30.618 102.003,30.618 C101.35,31.309 100.774,31.616 100.275,31.616 C99.123,31.616 98.432,29.235 98.432,27.008 C98.432,24.704 98.816,21.286 99.776,19.136 C99.814,19.059 99.814,19.021 99.814,18.944 C99.814,18.483 98.47,17.6 98.048,17.6 C97.933,17.6 97.856,17.638 97.741,17.715 C95.514,19.827 93.709,26.432 92.48,29.12 C92.749,27.738 92.787,25.587 92.787,21.286 C92.787,19.712 92.326,18.829 90.675,18.829 C89.293,18.829 87.795,22.784 86.528,28.006 z" fill="#FAFAFA"/>
    <path d="M121.395,27.776 C121.434,26.778 121.434,25.05 121.434,23.245 C121.434,21.747 121.434,20.173 121.357,18.906 C121.318,18.406 120.973,18.214 120.512,18.214 C119.936,18.214 119.206,18.483 118.707,18.79 C117.402,19.52 116.442,32.845 113.638,32.845 C112.678,32.845 112.41,31.309 112.41,29.35 C112.41,26.624 112.947,23.13 112.947,22.016 C112.947,21.555 111.987,21.248 111.296,21.056 C111.027,19.29 110.029,17.984 107.994,17.984 C104.346,17.984 101.965,23.859 101.965,28.659 C101.965,31.962 103.117,34.765 105.766,34.765 C107.264,34.765 108.723,32.691 109.76,30.003 C110.144,33.459 111.603,34.765 113.101,34.765 C117.018,34.765 117.786,21.478 118.861,21.478 C118.899,21.478 118.938,21.709 118.938,22.093 C118.938,23.744 118.554,28.198 118.554,28.429 C118.362,30.886 118.246,32.998 118.093,33.766 C118.054,33.882 118.054,34.035 118.054,34.112 C118.054,34.534 118.63,34.304 118.784,34.688 C118.861,34.918 119.437,35.149 119.859,35.149 C120.166,35.149 120.435,35.034 120.435,34.765 C121.28,32.23 122.202,26.97 124.045,24.973 C123.93,25.626 123.776,27.2 123.776,28.966 C123.776,32.691 124.467,37.414 127.654,37.414 C129.459,37.414 131.11,36.416 131.11,34.342 C131.11,34.266 131.072,34.227 130.995,34.227 C130.918,34.227 130.842,34.266 130.842,34.266 C129.92,35.149 129.19,35.533 128.576,35.533 C126.886,35.533 126.234,32.653 126.234,29.35 C126.234,25.587 127.078,21.286 128.307,19.904 C128.346,19.866 128.384,19.789 128.384,19.75 C128.384,19.558 128.154,19.366 128.038,19.251 C127.616,18.829 126.886,18.368 126.579,18.368 C126.464,18.368 126.387,18.406 126.272,18.483 C124.045,20.595 122.624,25.088 121.395,27.776 z M105.344,32.883 C104.576,32.883 104.192,31.77 104.192,30.195 C104.192,27.162 105.766,20.979 108.147,20.979 C108.723,20.979 109.338,21.363 109.99,22.208 C109.645,25.242 108.493,32.883 105.344,32.883 z" fill="#FAFAFA"/>
    <path d="M130.803,19.942 C130.419,21.632 129.728,25.395 129.728,28.736 C129.728,31.962 130.381,34.765 132.531,34.765 C134.374,34.765 135.987,32.768 136.41,30.579 L136.41,30.502 C136.41,30.349 136.333,30.272 136.218,30.272 C136.102,30.272 135.949,30.387 135.872,30.502 C135.45,31.501 134.221,32.883 133.376,32.883 C132.877,32.883 132.531,32.422 132.531,31.117 C132.531,27.277 133.069,25.05 134.067,19.482 C134.067,19.482 134.067,19.174 133.606,19.174 C132.57,19.405 131.917,19.443 131.264,19.443 C130.957,19.443 130.803,19.942 130.803,19.942 z M134.336,9.075 C132.8,9.075 131.802,10.765 131.802,12.186 C131.802,13.222 132.339,14.144 133.568,14.144 C134.912,14.144 136.026,12.301 136.026,10.842 C136.026,9.882 135.565,9.075 134.336,9.075 z" fill="#FAFAFA"/>
    <path d="M142.477,17.984 C138.829,17.984 136.448,23.859 136.448,28.659 C136.448,31.962 137.6,34.765 140.25,34.765 C142.477,34.765 144.282,30.234 145.203,26.394 C145.971,32.614 148.928,35.802 151.962,35.802 C154.304,35.802 156.646,33.882 157.99,30.003 L157.683,29.274 C158.106,28.39 158.298,27.93 158.298,27.699 C158.298,27.584 158.259,27.546 158.182,27.546 C157.914,27.546 157.184,28.275 156.838,28.621 C154.496,30.963 152.73,31.885 151.347,31.885 C147.968,31.885 147.123,26.24 147.123,21.286 C147.123,20.979 146.893,20.902 146.547,20.902 C146.317,20.902 146.01,20.941 145.741,21.018 C145.472,19.251 144.474,17.984 142.477,17.984 z M139.827,32.883 C139.059,32.883 138.675,31.77 138.675,30.195 C138.675,27.162 140.25,20.979 142.63,20.979 C143.206,20.979 143.821,21.363 144.474,22.208 C144.128,25.242 142.976,32.883 139.827,32.883 z" fill="#FAFAFA"/>
  </g>
</svg>
