<?xml version="1.0" encoding="UTF-8"?>
<!DOCTYPE svg PUBLIC "-//W3C//DTD SVG 1.1//EN" "http://www.w3.org/Graphics/SVG/1.1/DTD/svg11.dtd">
<svg version="1.1" xmlns="http://www.w3.org/2000/svg" xmlns:xlink="http://www.w3.org/1999/xlink" x="0px" y="0px" width="54" height="54" viewBox="0, 0, 54, 54">
  <g id="Layer 1">
    <path d="M27.5,50.925 C14.563,50.925 4.075,40.437 4.075,27.5 C4.075,14.563 14.563,4.075 27.5,4.075 C40.437,4.075 50.925,14.563 50.925,27.5 C50.925,40.437 40.437,50.925 27.5,50.925 z" fill-opacity="0" stroke="#000000" stroke-width="3"/>
    <path d="M24.751,18.816 C24.751,15.55 28.311,13.899 30.88,13.899 C32.348,13.899 33.522,14.449 33.522,15.55 C33.522,17.458 32.898,18.743 32.898,19.807 C32.898,20.835 33.522,21.679 35.907,22.596 C35.907,23.624 37.375,23.771 37.375,23.771 C37.302,23.33 37.302,22.89 37.302,22.413 C37.302,20.358 37.779,18.082 37.779,16.064 C37.779,12.431 34.953,10.889 31.724,10.889 C27.467,10.889 22.549,13.568 22.549,17.825 C22.549,24.394 32.788,31.477 32.788,34.303 C32.788,36.872 30.66,38.266 28.127,38.266 C23.687,38.266 17.778,36.468 13.852,32.762 L13.228,32.174 C12.971,32.174 12.604,32.138 12.604,32.138 C11.907,31.184 11.54,30.927 11.319,30.927 C11.063,30.927 11.026,31.33 10.989,31.33 C10.916,31.33 17.705,43.111 28.861,43.111 C31.981,43.111 36.017,41.422 36.017,36.798 C36.017,29.495 24.751,24.138 24.751,18.816 z" fill="#000000"/>
  </g>
  <defs/>
</svg>
