<?xml version="1.0" encoding="UTF-8"?>
<!DOCTYPE svg PUBLIC "-//W3C//DTD SVG 1.1//EN" "http://www.w3.org/Graphics/SVG/1.1/DTD/svg11.dtd">
<svg version="1.1" xmlns="http://www.w3.org/2000/svg" xmlns:xlink="http://www.w3.org/1999/xlink" x="0px" y="0px" width="50.4" height="50.4" viewBox="0, 0, 50.4, 50.4">
  <g id="Layer 1">
    <g>
      <path d="M25.7,49.125 C12.763,49.125 2.275,38.637 2.275,25.7 C2.275,12.763 12.763,2.275 25.7,2.275 C38.637,2.275 49.125,12.763 49.125,25.7 C49.125,38.637 38.637,49.125 25.7,49.125 z" fill-opacity="0" stroke="#FAFAFA" stroke-width="3"/>
      <path d="M22.951,17.016 C22.951,13.75 26.511,12.099 29.08,12.099 C30.548,12.099 31.722,12.649 31.722,13.75 C31.722,15.658 31.098,16.943 31.098,18.007 C31.098,19.035 31.722,19.879 34.107,20.796 C34.107,21.824 35.575,21.971 35.575,21.971 C35.502,21.53 35.502,21.09 35.502,20.613 C35.502,18.558 35.979,16.282 35.979,14.264 C35.979,10.631 33.153,9.089 29.924,9.089 C25.667,9.089 20.749,11.768 20.749,16.025 C20.749,22.594 30.988,29.677 30.988,32.503 C30.988,35.072 28.86,36.466 26.327,36.466 C21.887,36.466 15.978,34.668 12.052,30.962 L11.428,30.374 C11.171,30.374 10.804,30.338 10.804,30.338 C10.107,29.384 9.74,29.127 9.519,29.127 C9.263,29.127 9.226,29.53 9.189,29.53 C9.116,29.53 15.905,41.311 27.061,41.311 C30.181,41.311 34.217,39.622 34.217,34.998 C34.217,27.695 22.951,22.338 22.951,17.016 z" fill="#FAFAFA"/>
    </g>
  </g>
  <defs/>
</svg>
