<?xml version="1.0" encoding="UTF-8"?>
<!DOCTYPE svg PUBLIC "-//W3C//DTD SVG 1.1//EN" "http://www.w3.org/Graphics/SVG/1.1/DTD/svg11.dtd">
<svg version="1.1" xmlns="http://www.w3.org/2000/svg" xmlns:xlink="http://www.w3.org/1999/xlink" x="0px" y="0px" width="70" height="70" viewBox="0, 0, 70, 70">
  <g id="Layer 1">
    <g>
      <path d="M35.5,66.139 C18.578,66.139 4.861,52.422 4.861,35.5 C4.861,18.578 18.578,4.861 35.5,4.861 C52.422,4.861 66.139,18.578 66.139,35.5 C66.139,52.422 52.422,66.139 35.5,66.139 z" fill-opacity="0" stroke="#00261C" stroke-width="3"/>
      <path d="M32.059,24.296 C32.059,20.024 36.715,17.864 40.075,17.864 C41.995,17.864 43.531,18.584 43.531,20.024 C43.531,22.52 42.715,24.2 42.715,25.592 C42.715,26.936 43.531,28.04 46.651,29.24 C46.651,30.584 48.571,30.776 48.571,30.776 C48.475,30.2 48.475,29.624 48.475,29 C48.475,26.312 49.099,23.336 49.099,20.696 C49.099,15.944 45.403,13.928 41.179,13.928 C35.611,13.928 29.179,17.432 29.179,23 C29.179,31.592 42.571,40.856 42.571,44.552 C42.571,47.912 39.787,49.736 36.475,49.736 C30.667,49.736 22.939,47.384 17.803,42.536 L16.987,41.768 C16.651,41.768 16.171,41.72 16.171,41.72 C15.259,40.472 14.779,40.136 14.491,40.136 C14.155,40.136 14.107,40.664 14.059,40.664 C13.963,40.664 22.843,56.072 37.435,56.072 C41.515,56.072 46.795,53.864 46.795,47.816 C46.795,38.264 32.059,31.256 32.059,24.296 z" fill="#00261C"/>
    </g>
  </g>
  <defs/>
</svg>
