<?xml version="1.0"?>
<!--Icons from directory ""-->
<svg xmlns="http://www.w3.org/2000/svg" width="160" height="85" viewBox="0 0 160 85"><svg xmlns:xlink="http://www.w3.org/1999/xlink" height="45" width="45" version="1.1" y="0" x="0" viewBox="0, 0, 45, 45" id="scribemania-logo-white"><g id="scribemania-logo-white-Layer_1"><path stroke="#FAFAFA" stroke-width="2.5" d="m22.917 42.438c-10.781 0-19.521-8.741-19.521-19.521 0-10.781 8.74-19.521 19.521-19.521 10.78 0 19.521 8.74 19.521 19.521 0 10.78-8.741 19.521-19.521 19.521z" fill-opacity="0"/><path d="m20.626 15.68c0-2.722 2.966-4.098 5.107-4.098 1.224 0 2.202 0.459 2.202 1.376 0 1.59-0.52 2.661-0.52 3.548 0 0.856 0.52 1.56 2.507 2.324 0 0.857 1.224 0.979 1.224 0.979-0.061-0.367-0.061-0.734-0.061-1.132 0-1.712 0.398-3.609 0.398-5.29 0-3.028-2.356-4.313-5.046-4.313-3.548 0-7.646 2.233-7.646 5.78 0 5.474 8.532 11.377 8.532 13.732 0 2.141-1.773 3.302-3.884 3.302-3.7 0-8.624-1.498-11.896-4.586l-0.52-0.49c-0.214 0-0.52-0.03-0.52-0.03-0.581-0.795-0.886-1.01-1.071-1.01-0.213 0-0.244 0.336-0.275 0.336-0.06 0 5.597 9.818 14.894 9.818 2.6 0 5.963-1.408 5.963-5.261 0-6.086-9.388-10.55-9.388-14.985z" fill="#FAFAFA"/></g></svg><svg xmlns:xlink="http://www.w3.org/1999/xlink" height="40" width="160" version="1.1" y="45" x="0" viewBox="0, 0, 160, 40" id="scribemania-white"><g id="scribemania-white-Layer_1" fill="#FAFAFA"><path d="m16.102 11.149c0-3.418 3.725-5.146 6.413-5.146 1.536 0 2.765 0.576 2.765 1.728 0 1.997-0.653 3.341-0.653 4.455 0 1.075 0.653 1.958 3.149 2.918 0 1.075 1.536 1.229 1.536 1.229-0.077-0.461-0.077-0.922-0.077-1.421 0-2.15 0.499-4.531 0.499-6.643 0-3.802-2.956-5.415-6.336-5.415-4.454 0-9.6 2.804-9.6 7.258 0 6.874 10.714 14.285 10.714 17.242 0 2.688-2.227 4.147-4.877 4.147-4.646 0-10.829-1.882-14.937-5.76l-0.653-0.615c-0.269 0-0.653-0.038-0.653-0.038-0.73-0.998-1.114-1.267-1.344-1.267-0.269 0-0.307 0.422-0.346 0.422-0.076 0 7.028 12.327 18.701 12.327 3.264 0 7.488-1.767 7.488-6.605 0-7.642-11.789-13.248-11.789-18.816z"/><path d="m43.674 24.243c1.075 0 1.92-0.153 2.534-0.461-0.346 1.268-0.96 4.301-0.96 7.066 0 3.763 1.536 5.338 3.187 5.338 1.843 0 3.84-1.997 3.994-5.184 0 0 0.038-0.116 0.038-0.192 0-0.077-0.038-0.154-0.115-0.154-0.038 0-0.115 0.038-0.23 0.115-0.5 0.346-0.461 0.499-0.538 0.768-0.614 1.959-1.344 2.842-1.997 2.842-0.998 0-1.843-1.997-1.843-5.146 0-1.728 0.346-3.84 1.229-5.952 0.269-0.653 0.96-2.457 0.96-2.457s0.115-0.231 0.115-0.5c0-0.537-0.768-1.536-1.267-1.536-0.307 0-2.343 2.151-3.687 3.034-0.384 0.23-0.652 0.384-0.844 0.384-0.269 0-0.346-0.269-0.346-0.922 0-0.729 0.192-1.689 0.192-2.496 0-0.96-0.269-1.766-1.421-1.766-1.19 0-1.805 1.421-1.805 2.995 0 1.536 0.576 3.149 1.728 3.879-0.153 1.497-0.422 3.072-0.883 4.454-0.96 2.88-3.494 4.762-5.683 4.762-2.65 0-3.686-2.343-3.686-4.992 0-3.533 1.843-7.604 4.147-7.604 0.192 0 0.307 0.192 0.307 0.5 0 0.844-0.691 2.457-1.037 2.496-0.077 0-0.115 0.038-0.115 0.115 0 0.192 0.307 0.499 1.114 0.499 1.766 0 2.534-1.421 2.534-2.918 0-1.767-1.037-3.648-2.765-3.648-4.493 0-6.758 5.03-6.758 9.715 0 4.07 1.689 7.833 5.107 7.833 3.763 0 8.333-4.377 8.794-10.867z"/><path d="m52.659 19.942c-0.384 1.69-1.075 5.453-1.075 8.794 0 3.226 0.653 6.029 2.803 6.029 1.843 0 3.456-1.997 3.879-4.186v-0.077c0-0.153-0.077-0.23-0.192-0.23-0.116 0-0.269 0.115-0.346 0.23-0.422 0.999-1.651 2.381-2.496 2.381-0.499 0-0.845-0.461-0.845-1.766 0-3.84 0.538-6.067 1.536-11.635 0 0 0-0.308-0.461-0.308-1.036 0.231-1.689 0.269-2.342 0.269-0.307 0-0.461 0.499-0.461 0.499zm3.533-10.867c-1.536 0-2.534 1.69-2.534 3.111 0 1.036 0.537 1.958 1.766 1.958 1.344 0 2.458-1.843 2.458-3.302 0-0.96-0.461-1.767-1.69-1.767z"/><path d="m60.608 29.658c0-4.378 2.15-8.64 3.84-8.64 1.498 0 2.227 2.457 2.227 5.184 0 4.876-2.15 7.257-3.917 7.257-1.19 0-2.188-1.075-2.188-3.187 0-0.192 0.038-0.384 0.038-0.614zm-1.344-26.65c0 8.064-0.154 18.202-0.73 25.19 0 0.231-0.038 0.461-0.038 0.692 0 3.993 1.882 5.836 4.07 5.836 3.111 0 6.912-3.686 6.912-10.137 0-3.61-1.19-6.835-3.763-6.835-1.574 0-3.302 1.958-4.454 4.953 0.345-6.182 0.691-13.286 0.96-17.318 0-1.498-1.459-1.728-2.458-2.727-0.077-0.038-0.192-0.076-0.269-0.076-0.115 0-0.23 0.038-0.23 0.153z"/><path d="m76.429 33.075c-1.267 0-2.419-1.229-2.65-4.416 4.032-2.304 5.799-5.529 5.799-7.91 0-1.767-0.96-3.034-2.688-3.034-3.725 0-6.144 5.107-6.144 9.754 0 3.84 1.651 7.334 5.606 7.334 2.842 0 4.954-2.688 4.954-5.414 0-1.344-0.308-2.919-1.728-2.919-0.461 0-0.461 0.192-0.461 0.231 0.23 0.729 0.345 1.421 0.345 2.073 0 2.496-1.536 4.301-3.033 4.301zm0.921-12.403c0 1.882-2.073 5.338-3.609 6.374 0.077-3.417 1.344-7.104 3.033-7.104 0.423 0 0.576 0.384 0.576 0.73z"/><path d="m86.528 28.006c0.307-1.689 0.614-3.686 0.614-5.414 0-2.189-0.499-3.878-2.035-3.878-2.035 0-3.533 1.766-4.608 3.801 0 0.499 0.423 0.615 0.73 0.615 0.153 0 0.269-0.039 0.269-0.039 0.883-1.651 1.881-2.726 2.496-2.726 0.46 0 0.652 0.883 0.652 2.189 0 3.34-1.113 9.408-1.228 10.252 0.038 0.96 1.036 1.613 1.92 1.613 0.652 0 1.19-0.345 1.19-1.19 0.806-6.682 2.381-11.482 3.341-11.482 0.23 0 0.345 1.498 0.345 3.456 0 2.995-0.23 7.066-0.384 8.448v0.039c0 0.537 1.114 0.537 2.074 0.537 0.307 0 0.576-0.115 0.576-0.384 0.845-2.534 2.15-8.486 3.264-10.329 0 0.537-0.077 1.612-0.077 2.88 0 3.148 0.423 7.411 3.456 7.411 1.537 0 3.147-1.536 3.147-3.111 0-0.076-0.04-0.115-0.11-0.115-0.08 0-0.16 0.039-0.16 0.039-0.65 0.691-1.23 0.998-1.72 0.998-1.157 0-1.848-2.381-1.848-4.608 0-2.304 0.384-5.722 1.344-7.872 0.038-0.077 0.038-0.115 0.038-0.192 0-0.461-1.344-1.344-1.766-1.344-0.115 0-0.192 0.038-0.307 0.115-2.227 2.112-4.032 8.717-5.261 11.405 0.269-1.382 0.307-3.533 0.307-7.834 0-1.574-0.461-2.457-2.112-2.457-1.382 0-2.88 3.955-4.147 9.177z"/><path d="m121.4 27.776c0.03-0.998 0.03-2.726 0.03-4.531 0-1.498 0-3.072-0.07-4.339-0.04-0.5-0.39-0.692-0.85-0.692-0.57 0-1.3 0.269-1.8 0.576-1.31 0.73-2.27 14.055-5.07 14.055-0.96 0-1.23-1.536-1.23-3.495 0-2.726 0.54-6.22 0.54-7.334 0-0.461-0.96-0.768-1.65-0.96-0.27-1.766-1.27-3.072-3.31-3.072-3.64 0-6.03 5.875-6.03 10.675 0 3.303 1.16 6.106 3.81 6.106 1.49 0 2.95-2.074 3.99-4.762 0.38 3.456 1.84 4.762 3.34 4.762 3.92 0 4.69-13.287 5.76-13.287 0.04 0 0.08 0.231 0.08 0.615 0 1.651-0.39 6.105-0.39 6.336-0.19 2.457-0.3 4.569-0.46 5.337-0.04 0.116-0.04 0.269-0.04 0.346 0 0.422 0.58 0.192 0.73 0.576 0.08 0.23 0.66 0.461 1.08 0.461 0.31 0 0.58-0.115 0.58-0.384 0.84-2.535 1.76-7.795 3.6-9.792-0.11 0.653-0.26 2.227-0.26 3.993 0 3.725 0.69 8.448 3.87 8.448 1.81 0 3.46-0.998 3.46-3.072 0-0.076-0.04-0.115-0.11-0.115-0.08 0-0.16 0.039-0.16 0.039-0.92 0.883-1.65 1.267-2.26 1.267-1.69 0-2.35-2.88-2.35-6.183 0-3.763 0.85-8.064 2.08-9.446 0.04-0.038 0.07-0.115 0.07-0.154 0-0.192-0.23-0.384-0.34-0.499-0.42-0.422-1.15-0.883-1.46-0.883-0.12 0-0.19 0.038-0.31 0.115-2.23 2.112-3.65 6.605-4.87 9.293zm-16.06 5.107c-0.76 0-1.15-1.113-1.15-2.688 0-3.033 1.58-9.216 3.96-9.216 0.57 0 1.19 0.384 1.84 1.229-0.35 3.034-1.5 10.675-4.65 10.675z"/><path d="m130.8 19.942c-0.38 1.69-1.07 5.453-1.07 8.794 0 3.226 0.65 6.029 2.8 6.029 1.84 0 3.46-1.997 3.88-4.186v-0.077c0-0.153-0.08-0.23-0.19-0.23-0.12 0-0.27 0.115-0.35 0.23-0.42 0.999-1.65 2.381-2.49 2.381-0.5 0-0.85-0.461-0.85-1.766 0-3.84 0.54-6.067 1.54-11.635 0 0 0-0.308-0.46-0.308-1.04 0.231-1.69 0.269-2.35 0.269-0.3 0-0.46 0.499-0.46 0.499zm3.54-10.867c-1.54 0-2.54 1.69-2.54 3.111 0 1.036 0.54 1.958 1.77 1.958 1.34 0 2.46-1.843 2.46-3.302 0-0.96-0.47-1.767-1.69-1.767z"/><path d="m142.48 17.984c-3.65 0-6.03 5.875-6.03 10.675 0 3.303 1.15 6.106 3.8 6.106 2.23 0 4.03-4.531 4.95-8.371 0.77 6.22 3.73 9.408 6.76 9.408 2.34 0 4.69-1.92 6.03-5.799l-0.31-0.729c0.43-0.884 0.62-1.344 0.62-1.575 0-0.115-0.04-0.153-0.12-0.153-0.27 0-1 0.729-1.34 1.075-2.34 2.342-4.11 3.264-5.49 3.264-3.38 0-4.23-5.645-4.23-10.599 0-0.307-0.23-0.384-0.57-0.384-0.23 0-0.54 0.039-0.81 0.116-0.27-1.767-1.27-3.034-3.26-3.034zm-2.65 14.899c-0.77 0-1.15-1.113-1.15-2.688 0-3.033 1.57-9.216 3.95-9.216 0.58 0 1.19 0.384 1.84 1.229-0.34 3.034-1.49 10.675-4.64 10.675z"/></g></svg></svg>
