<svg xmlns="http://www.w3.org/2000/svg" xmlns:xlink="http://www.w3.org/1999/xlink" width="200" height="104" viewBox="0 0 200 104"><svg xmlns="http://www.w3.org/2000/svg" width="54" height="54" viewBox="0, 0, 54, 54" y="0" id="scribemania-logo-white"><g><path d="M27.5 50.925c-12.937 0-23.425-10.488-23.425-23.425 0-12.937 10.488-23.425 23.425-23.425 12.937 0 23.425 10.488 23.425 23.425 0 12.937-10.488 23.425-23.425 23.425z" stroke="#FAFAFA" stroke-width="3" fill="none"/><path d="M24.751 18.816c0-3.266 3.56-4.917 6.129-4.917 1.468 0 2.642.55 2.642 1.651 0 1.908-.624 3.193-.624 4.257 0 1.028.624 1.872 3.009 2.789 0 1.028 1.468 1.175 1.468 1.175-.073-.441-.073-.881-.073-1.358 0-2.055.477-4.331.477-6.349 0-3.633-2.826-5.175-6.055-5.175-4.257 0-9.175 2.679-9.175 6.936 0 6.569 10.239 13.652 10.239 16.478 0 2.569-2.128 3.963-4.661 3.963-4.44 0-10.349-1.798-14.275-5.504l-.624-.588c-.257 0-.624-.036-.624-.036-.697-.954-1.064-1.211-1.285-1.211-.256 0-.293.403-.33.403-.073 0 6.716 11.781 17.872 11.781 3.12 0 7.156-1.689 7.156-6.313 0-7.303-11.266-12.66-11.266-17.982z" fill="#FAFAFA"/></g></svg>
<svg xmlns="http://www.w3.org/2000/svg" width="200" height="50" viewBox="0, 0, 200, 50" y="54" id="scribemania-white"><g fill="#FAFAFA"><path d="M20.128 13.936c0-4.272 4.656-6.432 8.016-6.432 1.92 0 3.456.72 3.456 2.16 0 2.496-.816 4.176-.816 5.568 0 1.344.816 2.448 3.936 3.648 0 1.344 1.92 1.536 1.92 1.536-.096-.576-.096-1.152-.096-1.776 0-2.688.624-5.664.624-8.304 0-4.752-3.696-6.768-7.92-6.768-5.568 0-12 3.504-12 9.072 0 8.592 13.392 17.856 13.392 21.552 0 3.36-2.784 5.184-6.096 5.184-5.808 0-13.536-2.352-18.672-7.2l-.816-.768c-.336 0-.816-.048-.816-.048-.912-1.248-1.392-1.584-1.68-1.584-.336 0-.384.528-.432.528-.096 0 8.784 15.408 23.376 15.408 4.08 0 9.36-2.208 9.36-8.256 0-9.552-14.736-16.56-14.736-23.52zM54.592 30.304c1.344 0 2.4-.192 3.168-.576-.432 1.584-1.2 5.376-1.2 8.832 0 4.704 1.92 6.672 3.984 6.672 2.304 0 4.8-2.496 4.992-6.48l.048-.24c0-.096-.048-.192-.144-.192-.048 0-.144.048-.288.144-.624.432-.576.624-.672.96-.768 2.448-1.68 3.552-2.496 3.552-1.248 0-2.304-2.496-2.304-6.432 0-2.16.432-4.8 1.536-7.44.336-.816 1.2-3.072 1.2-3.072s.144-.288.144-.624c0-.672-.96-1.92-1.584-1.92-.384 0-2.928 2.688-4.608 3.792-.48.288-.816.48-1.056.48-.336 0-.432-.336-.432-1.152 0-.912.24-2.112.24-3.12 0-1.2-.336-2.208-1.776-2.208-1.488 0-2.256 1.776-2.256 3.744 0 1.92.72 3.936 2.16 4.848-.192 1.872-.528 3.84-1.104 5.568-1.2 3.6-4.368 5.952-7.104 5.952-3.312 0-4.608-2.928-4.608-6.24 0-4.416 2.304-9.504 5.184-9.504.24 0 .384.24.384.624 0 1.056-.864 3.072-1.296 3.12-.096 0-.144.048-.144.144 0 .24.384.624 1.392.624 2.208 0 3.168-1.776 3.168-3.648 0-2.208-1.296-4.56-3.456-4.56-5.616 0-8.448 6.288-8.448 12.144 0 5.088 2.112 9.792 6.384 9.792 4.704 0 10.416-5.472 10.992-13.584zM65.824 24.928c-.48 2.112-1.344 6.816-1.344 10.992 0 4.032.816 7.536 3.504 7.536 2.304 0 4.32-2.496 4.848-5.232v-.096c0-.192-.096-.288-.24-.288s-.336.144-.432.288c-.528 1.248-2.064 2.976-3.12 2.976-.624 0-1.056-.576-1.056-2.208 0-4.8.672-7.584 1.92-14.544 0 0 0-.384-.576-.384-1.296.288-2.112.336-2.928.336-.384 0-.576.624-.576.624zm4.416-13.584c-1.92 0-3.168 2.112-3.168 3.888 0 1.296.672 2.448 2.208 2.448 1.68 0 3.072-2.304 3.072-4.128 0-1.2-.576-2.208-2.112-2.208zM75.76 37.072c0-5.472 2.688-10.8 4.8-10.8 1.872 0 2.784 3.072 2.784 6.48 0 6.096-2.688 9.072-4.896 9.072-1.488 0-2.736-1.344-2.736-3.984l.048-.768zm-1.68-33.312c0 10.08-.192 22.752-.912 31.488l-.048.864c0 4.992 2.352 7.296 5.088 7.296 3.888 0 8.64-4.608 8.64-12.672 0-4.512-1.488-8.544-4.704-8.544-1.968 0-4.128 2.448-5.568 6.192.432-7.728.864-16.608 1.2-21.648 0-1.872-1.824-2.16-3.072-3.408-.096-.048-.24-.096-.336-.096-.144 0-.288.048-.288.192zM95.536 41.344c-1.584 0-3.024-1.536-3.312-5.52 5.04-2.88 7.248-6.912 7.248-9.888 0-2.208-1.2-3.792-3.36-3.792-4.656 0-7.68 6.384-7.68 12.192 0 4.8 2.064 9.168 7.008 9.168 3.552 0 6.192-3.36 6.192-6.768 0-1.68-.384-3.648-2.16-3.648-.576 0-.576.24-.576.288.288.912.432 1.776.432 2.592 0 3.12-1.92 5.376-3.792 5.376zm1.152-15.504c0 2.352-2.592 6.672-4.512 7.968.096-4.272 1.68-8.88 3.792-8.88.528 0 .72.48.72.912zM108.16 35.008c.384-2.112.768-4.608.768-6.768 0-2.736-.624-4.848-2.544-4.848-2.544 0-4.416 2.208-5.76 4.752 0 .624.528.768.912.768.192 0 .336-.048.336-.048 1.104-2.064 2.352-3.408 3.12-3.408.576 0 .816 1.104.816 2.736 0 4.176-1.392 11.76-1.536 12.816.048 1.2 1.296 2.016 2.4 2.016.816 0 1.488-.432 1.488-1.488 1.008-8.352 2.976-14.352 4.176-14.352.288 0 .432 1.872.432 4.32 0 3.744-.288 8.832-.48 10.56v.048c0 .672 1.392.672 2.592.672.384 0 .72-.144.72-.48 1.056-3.168 2.688-10.608 4.08-12.912 0 .672-.096 2.016-.096 3.6 0 3.936.528 9.264 4.32 9.264 1.92 0 3.936-1.92 3.936-3.888 0-.096-.048-.144-.144-.144l-.192.048c-.816.864-1.536 1.248-2.16 1.248-1.44 0-2.304-2.976-2.304-5.76 0-2.88.48-7.152 1.68-9.84.048-.096.048-.144.048-.24 0-.576-1.68-1.68-2.208-1.68-.144 0-.24.048-.384.144-2.784 2.64-5.04 10.896-6.576 14.256.336-1.728.384-4.416.384-9.792 0-1.968-.576-3.072-2.64-3.072-1.728 0-3.6 4.944-5.184 11.472zM151.744 34.72c.048-1.248.048-3.408.048-5.664 0-1.872 0-3.84-.096-5.424-.048-.624-.48-.864-1.056-.864-.72 0-1.632.336-2.256.72-1.632.912-2.832 17.568-6.336 17.568-1.2 0-1.536-1.92-1.536-4.368 0-3.408.672-7.776.672-9.168 0-.576-1.2-.96-2.064-1.2-.336-2.208-1.584-3.84-4.128-3.84-4.56 0-7.536 7.344-7.536 13.344 0 4.128 1.44 7.632 4.752 7.632 1.872 0 3.696-2.592 4.992-5.952.48 4.32 2.304 5.952 4.176 5.952 4.896 0 5.856-16.608 7.2-16.608.048 0 .096.288.096.768 0 2.064-.48 7.632-.48 7.92-.24 3.072-.384 5.712-.576 6.672-.048.144-.048.336-.048.432 0 .528.72.24.912.72.096.288.816.576 1.344.576.384 0 .72-.144.72-.48 1.056-3.168 2.208-9.744 4.512-12.24-.144.816-.336 2.784-.336 4.992 0 4.656.864 10.56 4.848 10.56 2.256 0 4.32-1.248 4.32-3.84 0-.096-.048-.144-.144-.144l-.192.048c-1.152 1.104-2.064 1.584-2.832 1.584-2.112 0-2.928-3.6-2.928-7.728 0-4.704 1.056-10.08 2.592-11.808.048-.048.096-.144.096-.192 0-.24-.288-.48-.432-.624-.528-.528-1.44-1.104-1.824-1.104-.144 0-.24.048-.384.144-2.784 2.64-4.56 8.256-6.096 11.616zm-20.064 6.384c-.96 0-1.44-1.392-1.44-3.36 0-3.792 1.968-11.52 4.944-11.52.72 0 1.488.48 2.304 1.536-.432 3.792-1.872 13.344-5.808 13.344zM163.504 24.928c-.48 2.112-1.344 6.816-1.344 10.992 0 4.032.816 7.536 3.504 7.536 2.304 0 4.32-2.496 4.848-5.232v-.096c0-.192-.096-.288-.24-.288s-.336.144-.432.288c-.528 1.248-2.064 2.976-3.12 2.976-.624 0-1.056-.576-1.056-2.208 0-4.8.672-7.584 1.92-14.544 0 0 0-.384-.576-.384-1.296.288-2.112.336-2.928.336-.384 0-.576.624-.576.624zm4.416-13.584c-1.92 0-3.168 2.112-3.168 3.888 0 1.296.672 2.448 2.208 2.448 1.68 0 3.072-2.304 3.072-4.128 0-1.2-.576-2.208-2.112-2.208zM178.096 22.48c-4.56 0-7.536 7.344-7.536 13.344 0 4.128 1.44 7.632 4.752 7.632 2.784 0 5.04-5.664 6.192-10.464.96 7.776 4.656 11.76 8.448 11.76 2.928 0 5.856-2.4 7.536-7.248l-.384-.912c.528-1.104.768-1.68.768-1.968 0-.144-.048-.192-.144-.192-.336 0-1.248.912-1.68 1.344-2.928 2.928-5.136 4.08-6.864 4.08-4.224 0-5.28-7.056-5.28-13.248 0-.384-.288-.48-.72-.48-.288 0-.672.048-1.008.144-.336-2.208-1.584-3.792-4.08-3.792zm-3.312 18.624c-.96 0-1.44-1.392-1.44-3.36 0-3.792 1.968-11.52 4.944-11.52.72 0 1.488.48 2.304 1.536-.432 3.792-1.872 13.344-5.808 13.344z"/></g></svg>
</svg>